HIERARCHY
ROOT Hips
{
	OFFSET 0.00000 0.00000 0.00000
	CHANNELS 6 Xposition Yposition Zposition Zrotation Yrotation Xrotation 
	JOINT LHipJoint
	{
		OFFSET 0 0 0
		CHANNELS 3 Zrotation Yrotation Xrotation
		JOINT LeftUpLeg
		{
			OFFSET 1.65412 -1.54119 0.76744
			CHANNELS 3 Zrotation Yrotation Xrotation
			JOINT LeftLeg
			{
				OFFSET 2.19550 -6.03209 0.00000
				CHANNELS 3 Zrotation Yrotation Xrotation
				JOINT LeftFoot
				{
					OFFSET 2.38814 -6.56138 0.00000
					CHANNELS 3 Zrotation Yrotation Xrotation
					JOINT LeftToeBase
					{
						OFFSET 0.17337 -0.47632 1.75875
						CHANNELS 3 Zrotation Yrotation Xrotation
						End Site
						{
							OFFSET 0.00000 -0.00000 0.92050
						}
					}
				}
			}
		}
	}
	JOINT RHipJoint
	{
		OFFSET 0 0 0
		CHANNELS 3 Zrotation Yrotation Xrotation
		JOINT RightUpLeg
		{
			OFFSET -1.40291 -1.54119 0.76744
			CHANNELS 3 Zrotation Yrotation Xrotation
			JOINT RightLeg
			{
				OFFSET -2.22156 -6.10370 0.00000
				CHANNELS 3 Zrotation Yrotation Xrotation
				JOINT RightFoot
				{
					OFFSET -2.46840 -6.78188 0.00000
					CHANNELS 3 Zrotation Yrotation Xrotation
					JOINT RightToeBase
					{
						OFFSET -0.15659 -0.43024 1.84117
						CHANNELS 3 Zrotation Yrotation Xrotation
						End Site
						{
							OFFSET -0.00000 -0.00000 0.95587
						}
					}
				}
			}
		}
	}
	JOINT LowerBack
	{
		OFFSET 0 0 0
		CHANNELS 3 Zrotation Yrotation Xrotation
		JOINT Spine
		{
			OFFSET -0.01936 1.82120 -0.32061
			CHANNELS 3 Zrotation Yrotation Xrotation
			JOINT Spine1
			{
				OFFSET -0.00532 1.85767 -0.00071
				CHANNELS 3 Zrotation Yrotation Xrotation
				JOINT Neck
				{
					OFFSET 0 0 0
					CHANNELS 3 Zrotation Yrotation Xrotation
					JOINT Neck1
					{
						OFFSET -0.10687 1.58194 0.10810
						CHANNELS 3 Zrotation Yrotation Xrotation
						JOINT Head
						{
							OFFSET 0.15346 1.57382 -0.25612
							CHANNELS 3 Zrotation Yrotation Xrotation
							End Site
							{
								OFFSET 0.05334 1.61251 -0.10513
							}
						}
					}
				}
				JOINT LeftShoulder
				{
					OFFSET 0 0 0
					CHANNELS 3 Zrotation Yrotation Xrotation
					JOINT LeftArm
					{
						OFFSET 2.85758 0.89498 -0.01485
						CHANNELS 3 Zrotation Yrotation Xrotation
						JOINT LeftForeArm
						{
							OFFSET 4.79185 -0.00000 -0.00000
							CHANNELS 3 Zrotation Yrotation Xrotation
							JOINT LeftHand
							{
								OFFSET 2.65553 -0.00000 0.00000
								CHANNELS 3 Zrotation Yrotation Xrotation
								JOINT LeftFingerBase
								{
									OFFSET 0 0 0
									CHANNELS 3 Zrotation Yrotation Xrotation
									JOINT LeftHandIndex1
									{
										OFFSET 0.74390 -0.00000 0.00000
										CHANNELS 3 Zrotation Yrotation Xrotation
										End Site
										{
											OFFSET 0.59975 -0.00000 0.00000
										}
									}
								}
								JOINT LThumb
								{
									OFFSET 0 0 0
									CHANNELS 3 Zrotation Yrotation Xrotation
									End Site
									{
										OFFSET 0.60891 -0.00000 0.60891
									}
								}
							}
						}
					}
				}
				JOINT RightShoulder
				{
					OFFSET 0 0 0
					CHANNELS 3 Zrotation Yrotation Xrotation
					JOINT RightArm
					{
						OFFSET -2.93906 0.88031 0.02490
						CHANNELS 3 Zrotation Yrotation Xrotation
						JOINT RightForeArm
						{
							OFFSET -4.77254 -0.00000 -0.00000
							CHANNELS 3 Zrotation Yrotation Xrotation
							JOINT RightHand
							{
								OFFSET -2.75995 -0.00000 -0.00000
								CHANNELS 3 Zrotation Yrotation Xrotation
								JOINT RightFingerBase
								{
									OFFSET 0 0 0
									CHANNELS 3 Zrotation Yrotation Xrotation
									JOINT RightHandIndex1
									{
										OFFSET -0.70162 -0.00000 0.00000
										CHANNELS 3 Zrotation Yrotation Xrotation
										End Site
										{
											OFFSET -0.56566 -0.00000 0.00000
										}
									}
								}
								JOINT RThumb
								{
									OFFSET 0 0 0
									CHANNELS 3 Zrotation Yrotation Xrotation
									End Site
									{
										OFFSET -0.57430 -0.00000 0.57430
									}
								}
							}
						}
					}
				}
			}
		}
	}
}
MOTION
Frames: 16
Frame Time: .0083333
0.0018 16.0968 0.3581 0 0 0 0 0 0 -21 0 0 0 0 0 0 0 0 0 0 0 0 0 0 21 0 0 0 0 0 0 0 0 0 0 0 0 0 0 0 0 0 0 0 0 0 0 -16 0 0 21 0 0 11 0 0 0 -8 0 0 0 0 0 0 0 0 0 0 0 0 0 0 0 0 0 0 0 0 8 0 0 0 0 0 0 0 0 0 0 0 0 0 0 0 0 0
0.0018 16.0968 0.3581 -2.0779 -0.1368 -0.1913 0.0000 0.0000 0.0000 -15.1478 -10.4099 5.2942 0.4790 4.4385 12.3137 0.2338 6.2261 -13.4906 0.3673 -3.8930 -10.7760 0.0000 0.0000 0.0000 20.8949 9.8854 4.7663 -0.5951 -4.9387 13.7337 -0.2815 -6.8026 -14.7625 -0.1099 2.1373 -5.8853 -0.9767 -0.1517 9.4338 -1.3859 -0.4304 -2.4713 -0.8447 -0.2003 -7.9208 -18.1296 -13.6500 -5.6579 11.9850 -19.3393 20.3245 4.5963 -9.4801 10.3984 -0.0000 -0.0000 0.0000 -78.4771 -15.8756 71.2551 93.6892 -59.9485 -63.1944 -0.0000 0.0000 -3.4488 28.7023 2.9658 1.6227 -7.1250 0.0000 -0.0000 1.7131 33.3566 -0.4891 -0.0000 -0.0000 0.0000 46.9748 37.2384 55.1804 -95.2981 59.8937 -64.5866 0.0000 -0.0000 -18.9236 -16.6782 16.0109 -4.7239 7.1250 -0.0000 -0.0000 7.3866 -13.4048 5.5200
0.0029 16.0970 0.3638 -2.0084 -0.0857 -0.1857 0.0000 0.0000 0.0000 -15.2383 -10.4381 5.3625 0.4735 4.4133 12.2424 0.2323 6.2414 -13.4819 0.3632 -3.8712 -10.7145 0.0000 0.0000 0.0000 20.8118 9.8319 4.7791 -0.5942 -4.9351 13.7235 -0.2797 -6.8135 -14.7475 -0.1138 2.1753 -5.9902 -1.1129 -0.1526 9.3659 -1.3223 -0.4426 -2.4858 -0.6989 -0.1980 -7.8956 -18.2830 -13.7445 -5.7191 11.7174 -19.4282 20.7499 4.5005 -9.5486 10.5674 0.0000 0.0000 0.0000 -78.2662 -14.8590 71.0136 91.7994 -59.9878 -61.5582 -0.0000 0.0000 -3.7286 27.9898 2.7352 1.4528 -7.1250 0.0000 -0.0000 1.1329 33.0751 -0.3311 0.0000 0.0000 0.0000 48.4796 35.7778 56.3323 -92.9504 59.9671 -62.5549 0.0000 -0.0000 -17.7717 -18.0198 15.6305 -5.0090 7.1250 -0.0000 -0.0000 6.4751 -13.6611 4.7940
0.0040 16.0963 0.3691 -2.0439 -0.1042 -0.2124 0.0000 0.0000 0.0000 -15.2142 -10.4198 5.4234 0.4732 4.4116 12.2376 0.2343 6.2582 -13.5296 0.3553 -3.8296 -10.5977 0.0000 0.0000 0.0000 20.8591 9.8349 4.8527 -0.5913 -4.9231 13.6894 -0.2807 -6.8199 -14.7674 -0.1103 2.1416 -5.8972 -1.1882 -0.1300 9.3146 -1.2095 -0.4119 -2.4779 -0.5422 -0.1764 -7.8557 -18.4065 -13.8264 -5.7976 11.4242 -19.4910 21.1752 4.3946 -9.6049 10.7299 0.0000 0.0000 0.0000 -78.0497 -13.8650 70.9064 89.6686 -59.9996 -59.7130 -0.0000 0.0000 -3.6796 27.7062 2.8266 1.4834 -7.1250 0.0000 -0.0000 0.9012 33.1707 -0.2613 0.0000 0.0000 0.0000 49.8032 34.3773 57.2762 -90.3908 59.9994 -60.3384 0.0000 -0.0000 -16.8137 -17.0008 15.3529 -4.6280 7.1250 -0.0000 -0.0000 7.1535 -14.0495 5.2448
0.0056 16.0959 0.3753 -2.0451 -0.1228 -0.2033 0.0000 0.0000 0.0000 -15.2335 -10.4270 5.4851 0.4688 4.3914 12.1804 0.2286 6.3478 -13.5286 0.3588 -3.8481 -10.6497 0.0000 0.0000 0.0000 20.8443 9.7873 4.8438 -0.5919 -4.9255 13.6963 -0.2850 -6.7537 -14.7653 -0.1120 2.1581 -5.9428 -1.1265 -0.1346 9.2054 -1.2348 -0.4099 -2.4671 -0.6041 -0.1793 -7.7816 -18.4158 -13.8803 -5.9365 11.2015 -19.5472 21.6806 4.2947 -9.6424 10.9283 0.0000 -0.0000 0.0000 -77.5836 -12.9109 70.8434 87.6278 -59.9787 -57.9458 -0.0000 0.0000 -3.6540 27.4664 3.0389 1.5786 -7.1250 0.0000 -0.0000 0.7031 33.4032 -0.1999 0.0000 -0.0000 0.0000 51.2313 33.0480 58.1879 -87.6520 59.9792 -57.9667 0.0000 -0.0000 -16.0969 -15.7637 15.4016 -4.2875 7.1250 -0.0000 -0.0000 7.9882 -14.1164 5.8570
0.0073 16.0954 0.3818 -2.0474 -0.1025 -0.1791 0.0000 0.0000 0.0000 -15.2455 -10.4353 5.5571 0.4598 4.3495 12.0622 0.2171 6.4305 -13.4298 0.3702 -3.9083 -10.8189 0.0000 0.0000 0.0000 20.8190 9.6942 4.7772 -0.5963 -4.9434 13.7471 -0.2926 -6.6553 -14.7789 -0.1136 2.1729 -5.9837 -0.9594 -0.1676 9.0804 -1.3267 -0.4383 -2.4744 -0.7907 -0.2037 -7.7192 -18.3779 -13.9047 -6.0236 11.0396 -19.5934 22.1842 4.2155 -9.6700 11.1177 0.0000 0.0000 0.0000 -77.0463 -11.9628 70.7419 85.8261 -59.9341 -56.3861 -0.0000 0.0000 -3.8534 26.9310 3.4555 1.7538 -7.1250 0.0000 -0.0000 0.2575 33.8542 -0.0704 0.0000 0.0000 0.0000 52.7625 31.6865 59.0541 -84.9556 59.9036 -55.6328 0.0000 -0.0000 -15.3759 -15.2476 15.9486 -4.2835 7.1250 -0.0000 -0.0000 8.3434 -13.6063 6.2141
0.0086 16.0945 0.3899 -1.9441 -0.1166 -0.2027 0.0000 0.0000 0.0000 -15.3771 -10.3725 5.7020 0.4470 4.2897 11.8932 0.2129 6.4903 -13.4240 0.3793 -3.9553 -10.9508 0.0000 0.0000 0.0000 20.6932 9.6280 4.7646 -0.6051 -4.9791 13.8491 -0.3021 -6.5666 -14.8294 -0.1186 2.2203 -6.1148 -1.0213 -0.1801 8.9698 -1.3511 -0.4619 -2.4603 -0.7780 -0.2131 -7.6402 -18.4589 -13.9162 -6.1239 10.8591 -19.5980 22.7178 4.1522 -9.6886 11.3277 0.0000 0.0000 0.0000 -76.7741 -11.0321 70.5581 83.7175 -59.8503 -54.5620 -0.0000 0.0000 -3.9976 26.5535 3.5854 1.7900 -7.1250 0.0000 -0.0000 -0.0556 33.9866 0.0150 0.0000 0.0000 0.0000 54.1330 30.3240 59.7766 -82.2689 59.7729 -53.3098 0.0000 -0.0000 -14.5593 -15.2352 16.8617 -4.5170 7.1250 -0.0000 -0.0000 8.3684 -12.6781 6.3979
0.0119 16.0923 0.4024 -1.7321 -0.2169 -0.2014 0.0000 0.0000 0.0000 -15.6636 -10.3360 5.8915 0.4335 4.2249 11.7104 0.2124 6.5891 -13.5171 0.3793 -3.9553 -10.9509 0.0000 0.0000 0.0000 20.4316 9.6012 4.7261 -0.6166 -5.0255 13.9812 -0.3152 -6.4177 -14.8742 -0.1230 2.2612 -6.2281 -1.3241 -0.1268 8.7528 -1.2977 -0.4170 -2.4274 -0.5580 -0.1763 -7.4771 -18.6168 -13.9571 -6.3106 10.5787 -19.5974 23.3371 4.0569 -9.7154 11.5863 -0.0000 0.0000 0.0000 -76.7070 -10.1791 70.5457 81.3922 -59.7182 -52.5525 -0.0000 0.0000 -4.0607 26.5188 3.5956 1.7924 -7.1250 0.0000 -0.0000 -0.0845 33.9968 0.0228 -0.0000 0.0000 0.0000 55.1363 28.9572 60.3403 -79.8268 59.6053 -51.2014 0.0000 -0.0000 -13.9346 -15.4804 16.9493 -4.6160 7.1250 -0.0000 -0.0000 8.2077 -12.5647 6.2920
0.0150 16.0900 0.4104 -1.5895 -0.2249 -0.2424 0.0000 0.0000 0.0000 -15.8783 -10.3715 6.1148 0.4195 4.1572 11.5193 0.2038 6.6900 -13.4835 0.3688 -3.9007 -10.7976 0.0000 0.0000 0.0000 20.2555 9.5568 4.7034 -0.6294 -5.0765 14.1269 -0.3293 -6.2846 -14.9479 -0.1226 2.2572 -6.2171 -1.5086 -0.1331 8.6596 -1.2721 -0.4421 -2.3996 -0.4234 -0.1799 -7.3922 -18.6706 -13.9922 -6.5916 10.2562 -19.5902 24.0902 3.9256 -9.7322 11.8999 -0.0000 0.0000 0.0000 -76.4883 -9.2201 70.4578 79.4740 -59.5772 -50.8971 -0.0000 0.0000 -4.1536 26.6638 3.5416 1.7768 -7.1250 0.0000 -0.0000 0.0361 33.9416 -0.0098 -0.0000 0.0000 0.0000 56.2036 27.6637 61.0013 -77.4665 59.3980 -49.1677 0.0000 -0.0000 -13.4604 -15.7862 16.0043 -4.4570 7.1250 -0.0000 -0.0000 7.9838 -13.4986 5.9590
0.0146 16.0877 0.4086 -1.5191 -0.0359 -0.3988 0.0000 0.0000 0.0000 -15.9985 -10.4603 6.3395 0.4115 4.1179 11.4085 0.1934 6.7341 -13.3641 0.3859 -3.9892 -11.0462 0.0000 0.0000 0.0000 20.2072 9.4434 4.7934 -0.6410 -5.1221 14.2573 -0.3371 -6.3192 -15.0869 -0.1189 2.2227 -6.1216 -1.5739 -0.1811 8.8805 -1.2732 -0.5199 -2.4146 -0.3759 -0.2142 -7.5350 -18.7064 -14.0082 -6.7415 9.9400 -19.5832 24.8568 3.8026 -9.7551 12.1966 0.0000 -0.0000 0.0000 -76.1653 -8.0856 70.3048 78.0451 -59.4530 -49.6658 -0.0000 0.0000 -4.1247 26.3564 3.8384 1.8997 -7.1250 0.0000 -0.0000 -0.2250 34.2618 0.0593 0.0000 -0.0000 0.0000 57.3170 26.2525 61.5816 -75.0709 59.1409 -47.1084 0.0000 -0.0000 -12.9334 -15.6597 15.5980 -4.3106 7.1250 -0.0000 -0.0000 8.0613 -13.9254 5.9447
0.0149 16.0852 0.4093 -1.4862 0.0719 -0.5412 0.0000 0.0000 0.0000 -16.0838 -10.5260 6.4988 0.4139 4.1296 11.4416 0.1952 6.7747 -13.4346 0.4320 -4.2181 -11.6910 0.0000 0.0000 0.0000 20.1995 9.3796 4.8988 -0.6511 -5.1615 14.3698 -0.3449 -6.3332 -15.2065 -0.1155 2.1907 -6.0330 -1.5875 -0.1779 9.0534 -1.2581 -0.5213 -2.4442 -0.3518 -0.2130 -7.6663 -18.8846 -14.0169 -6.6424 9.7679 -19.6053 25.4349 3.7633 -9.8019 12.4137 -0.0000 -0.0000 0.0000 -75.9238 -7.0256 70.2354 76.6113 -59.3117 -48.4318 -0.0000 0.0000 -3.8535 25.5287 4.6501 2.2173 -7.1250 0.0000 -0.0000 -0.9405 35.1291 0.2280 -0.0000 -0.0000 0.0000 58.3521 24.7998 62.0179 -72.6043 58.8251 -44.9943 0.0000 -0.0000 -12.4171 -15.4009 15.6693 -4.2549 7.1250 -0.0000 -0.0000 8.2362 -13.8766 6.0850
0.0144 16.0837 0.4119 -1.5216 0.0304 -0.5081 0.0000 0.0000 0.0000 -16.0310 -10.5033 6.4076 0.4218 4.1686 11.5514 0.2027 6.7489 -13.5269 0.4563 -4.3335 -12.0169 0.0000 0.0000 0.0000 20.2466 9.4543 4.8584 -0.6560 -5.1806 14.4244 -0.3456 -6.3587 -15.2385 -0.1190 2.2244 -6.1262 -1.5616 -0.1396 8.9504 -1.2238 -0.4620 -2.4541 -0.3397 -0.1846 -7.6176 -19.0664 -14.0503 -6.5945 9.6736 -19.6711 25.9685 3.7402 -9.8590 12.6432 -0.0000 0.0000 0.0000 -75.7449 -6.2106 70.1410 75.0573 -59.1393 -47.0966 -0.0000 0.0000 -3.4922 24.9618 5.2663 2.4465 -7.1250 0.0000 -0.0000 -1.4443 35.7820 0.3273 -0.0000 0.0000 0.0000 59.3105 23.5317 62.3988 -70.2307 58.4705 -42.9672 0.0000 -0.0000 -12.0323 -15.3511 15.3855 -4.1658 7.1250 -0.0000 -0.0000 8.2658 -14.1705 6.0553
0.0103 16.0836 0.4113 -1.5507 0.1061 -0.3419 0.0000 0.0000 0.0000 -15.9111 -10.5153 6.0755 0.4343 4.2290 11.7217 0.2086 6.5659 -13.4330 0.4440 -4.2752 -11.8521 0.0000 0.0000 0.0000 20.2914 9.5267 4.6958 -0.6567 -5.1833 14.4321 -0.3347 -6.5175 -15.2349 -0.1246 2.2753 -6.2670 -1.5948 -0.1767 8.7220 -1.1865 -0.5068 -2.4470 -0.2753 -0.2048 -7.4772 -19.0967 -14.0631 -6.7454 9.5452 -19.6871 26.5329 3.6801 -9.8751 12.8957 0.0000 0.0000 0.0000 -75.5672 -5.5472 69.9458 73.6435 -58.9646 -45.8841 -0.0000 0.0000 -3.2751 24.7215 5.7932 2.6607 -7.1250 0.0000 -0.0000 -1.6774 36.3485 0.3570 0.0000 0.0000 0.0000 60.2347 22.4533 62.8386 -67.8400 58.0607 -40.9338 0.0000 -0.0000 -11.7804 -15.4251 15.2318 -4.1461 7.1250 -0.0000 -0.0000 8.2139 -14.3206 5.9900
0.0154 16.0793 0.4197 -1.6718 0.0985 -0.6393 0.0000 0.0000 0.0000 -15.8677 -10.4694 6.3032 0.4535 4.3204 11.9798 0.2240 6.4774 -13.5860 0.4307 -4.2114 -11.6722 0.0000 0.0000 0.0000 20.4622 9.3849 5.0455 -0.6546 -5.1752 14.4088 -0.3378 -6.5071 -15.2670 -0.1310 2.3327 -6.4261 -1.3998 -0.1983 8.8629 -1.1563 -0.5116 -2.3130 -0.3517 -0.2159 -7.4161 -19.0519 -14.0334 -6.8722 9.3885 -19.6439 27.0599 3.6137 -9.8629 13.1073 0.0000 0.0000 0.0000 -75.3769 -4.8562 69.7329 72.1253 -58.7576 -44.5846 -0.0000 0.0000 -3.1584 24.4523 5.9996 2.7211 -7.1250 0.0000 -0.0000 -1.9174 36.5598 0.3982 0.0000 0.0000 0.0000 61.1427 21.3659 63.2884 -65.3639 57.5776 -38.8380 0.0000 -0.0000 -11.4334 -15.5209 15.4413 -4.2289 7.1250 -0.0000 -0.0000 8.1523 -14.0982 5.9830
0.0203 16.0754 0.4215 -1.7554 0.2530 -0.8692 0.0000 0.0000 0.0000 -15.8612 -10.5814 6.4651 0.4698 4.3963 12.1942 0.2295 6.4453 -13.6397 0.4254 -4.1859 -11.6002 0.0000 0.0000 0.0000 20.5790 9.2120 5.2903 -0.6543 -5.1740 14.4056 -0.3426 -6.5426 -15.3651 -0.1282 2.3080 -6.3577 -1.2276 -0.2609 9.0385 -1.1362 -0.5756 -2.2177 -0.4170 -0.2546 -7.4165 -19.0484 -13.9966 -6.9668 9.2412 -19.5878 27.5642 3.5613 -9.8496 13.3100 0.0000 -0.0000 0.0000 -75.2204 -4.1579 69.4489 70.1512 -58.4577 -42.8994 -0.0000 0.0000 -2.8036 24.0419 5.1631 2.2989 -7.1250 0.0000 -0.0000 -2.2068 35.6231 0.5088 0.0000 -0.0000 0.0000 61.9539 20.3137 63.6553 -63.0426 57.0677 -36.8840 0.0000 -0.0000 -11.0121 -15.7569 15.6636 -4.3564 7.1250 -0.0000 -0.0000 7.9972 -13.8495 5.9094
0.0172 16.0671 0.4013 -1.8227 0.6997 -1.4160 0.0000 0.0000 0.0000 -15.8843 -10.7465 6.8534 0.4833 4.4582 12.3693 0.2314 6.2903 -13.5160 0.4231 -4.1747 -11.5687 0.0000 0.0000 0.0000 20.7417 8.8489 5.7928 -0.6534 -5.1705 14.3956 -0.3357 -6.7899 -15.4996 -0.1244 2.2740 -6.2635 -1.1849 -0.3974 9.8936 -1.0994 -0.7657 -2.1103 -0.3677 -0.3467 -7.7940 -19.1722 -13.9572 -6.9989 9.2523 -19.5660 28.0467 3.5839 -9.8506 13.5360 0.0000 -0.0000 0.0000 -75.0925 -3.4661 69.2294 68.4396 -58.1686 -41.4429 -0.0000 0.0000 -2.7944 23.7147 4.3702 1.9171 -7.1250 0.0000 -0.0000 -2.4295 34.7432 0.6123 0.0000 -0.0000 0.0000 62.7387 19.2591 63.9158 -60.9556 56.5592 -35.1374 0.0000 -0.0000 -10.3340 -15.7193 15.3155 -4.2516 7.1250 -0.0000 -0.0000 8.0167 -14.2084 5.8625
